<mxfile host="app.diagrams.net" modified="2021-12-01T19:32:15.786Z" agent="5.0 (Windows NT 10.0; Win64; x64) AppleWebKit/537.36 (KHTML, like Gecko) Chrome/96.0.4664.45 Safari/537.36" etag="3szSq336b3V1MEzNJxve" version="15.8.8" type="github">
  <diagram id="fAOh5CS9RB5xoX4d-p1L" name="Page-1">
    <mxGraphModel dx="1422" dy="762" grid="1" gridSize="10" guides="1" tooltips="1" connect="1" arrows="1" fold="1" page="1" pageScale="1" pageWidth="850" pageHeight="1100" background="#ffffff" math="0" shadow="1">
      <root>
        <mxCell id="0" />
        <mxCell id="1" parent="0" />
        <mxCell id="M3MPykR8WJl9rRJrLF5X-1" value="" style="rounded=0;whiteSpace=wrap;html=1;" parent="1" vertex="1">
          <mxGeometry x="165" y="120" width="570" height="740" as="geometry" />
        </mxCell>
        <mxCell id="M3MPykR8WJl9rRJrLF5X-2" value="User" style="shape=umlActor;verticalLabelPosition=bottom;verticalAlign=top;html=1;outlineConnect=0;" parent="1" vertex="1">
          <mxGeometry x="50" y="430" width="30" height="60" as="geometry" />
        </mxCell>
        <mxCell id="M3MPykR8WJl9rRJrLF5X-3" value="Moderator" style="shape=umlActor;verticalLabelPosition=bottom;verticalAlign=top;html=1;outlineConnect=0;" parent="1" vertex="1">
          <mxGeometry x="810" y="280" width="30" height="60" as="geometry" />
        </mxCell>
        <mxCell id="M3MPykR8WJl9rRJrLF5X-4" value="Admin" style="shape=umlActor;verticalLabelPosition=bottom;verticalAlign=top;html=1;outlineConnect=0;" parent="1" vertex="1">
          <mxGeometry x="800" y="600" width="30" height="60" as="geometry" />
        </mxCell>
        <mxCell id="M3MPykR8WJl9rRJrLF5X-5" value="Authentication" style="ellipse;whiteSpace=wrap;html=1;" parent="1" vertex="1">
          <mxGeometry x="390" y="140" width="120" height="50" as="geometry" />
        </mxCell>
        <mxCell id="M3MPykR8WJl9rRJrLF5X-6" value="Blog Post" style="ellipse;whiteSpace=wrap;html=1;" parent="1" vertex="1">
          <mxGeometry x="390" y="280" width="120" height="40" as="geometry" />
        </mxCell>
        <mxCell id="M3MPykR8WJl9rRJrLF5X-25" value="" style="edgeStyle=orthogonalEdgeStyle;rounded=0;orthogonalLoop=1;jettySize=auto;html=1;" parent="1" source="M3MPykR8WJl9rRJrLF5X-7" target="M3MPykR8WJl9rRJrLF5X-8" edge="1">
          <mxGeometry relative="1" as="geometry" />
        </mxCell>
        <mxCell id="M3MPykR8WJl9rRJrLF5X-7" value="Course Add" style="ellipse;whiteSpace=wrap;html=1;" parent="1" vertex="1">
          <mxGeometry x="450" y="380" width="120" height="40" as="geometry" />
        </mxCell>
        <mxCell id="M3MPykR8WJl9rRJrLF5X-8" value="Course Enroll" style="ellipse;whiteSpace=wrap;html=1;" parent="1" vertex="1">
          <mxGeometry x="300" y="380" width="120" height="40" as="geometry" />
        </mxCell>
        <mxCell id="M3MPykR8WJl9rRJrLF5X-9" value="Resource Access" style="ellipse;whiteSpace=wrap;html=1;" parent="1" vertex="1">
          <mxGeometry x="300" y="510" width="120" height="40" as="geometry" />
        </mxCell>
        <mxCell id="M3MPykR8WJl9rRJrLF5X-36" value="" style="edgeStyle=orthogonalEdgeStyle;rounded=0;orthogonalLoop=1;jettySize=auto;html=1;" parent="1" source="M3MPykR8WJl9rRJrLF5X-10" target="M3MPykR8WJl9rRJrLF5X-26" edge="1">
          <mxGeometry relative="1" as="geometry" />
        </mxCell>
        <mxCell id="M3MPykR8WJl9rRJrLF5X-10" value="Quiz Add" style="ellipse;whiteSpace=wrap;html=1;" parent="1" vertex="1">
          <mxGeometry x="460" y="650" width="120" height="40" as="geometry" />
        </mxCell>
        <mxCell id="M3MPykR8WJl9rRJrLF5X-12" value="Instructor" style="shape=umlActor;verticalLabelPosition=bottom;verticalAlign=top;html=1;outlineConnect=0;" parent="1" vertex="1">
          <mxGeometry x="810" y="420" width="30" height="60" as="geometry" />
        </mxCell>
        <mxCell id="M3MPykR8WJl9rRJrLF5X-13" value="" style="endArrow=classic;html=1;rounded=0;" parent="1" source="M3MPykR8WJl9rRJrLF5X-2" target="M3MPykR8WJl9rRJrLF5X-5" edge="1">
          <mxGeometry width="50" height="50" relative="1" as="geometry">
            <mxPoint x="350" y="540" as="sourcePoint" />
            <mxPoint x="400" y="490" as="targetPoint" />
          </mxGeometry>
        </mxCell>
        <mxCell id="M3MPykR8WJl9rRJrLF5X-15" value="" style="endArrow=classic;html=1;rounded=0;entryX=1;entryY=0.5;entryDx=0;entryDy=0;" parent="1" source="M3MPykR8WJl9rRJrLF5X-12" target="M3MPykR8WJl9rRJrLF5X-7" edge="1">
          <mxGeometry width="50" height="50" relative="1" as="geometry">
            <mxPoint x="350" y="540" as="sourcePoint" />
            <mxPoint x="400" y="490" as="targetPoint" />
          </mxGeometry>
        </mxCell>
        <mxCell id="M3MPykR8WJl9rRJrLF5X-17" value="" style="endArrow=classic;html=1;rounded=0;entryX=1;entryY=1;entryDx=0;entryDy=0;" parent="1" source="M3MPykR8WJl9rRJrLF5X-4" target="M3MPykR8WJl9rRJrLF5X-7" edge="1">
          <mxGeometry width="50" height="50" relative="1" as="geometry">
            <mxPoint x="759.9999999999995" y="499.9999999999998" as="sourcePoint" />
            <mxPoint x="474.99999999999955" y="376.5" as="targetPoint" />
          </mxGeometry>
        </mxCell>
        <mxCell id="M3MPykR8WJl9rRJrLF5X-18" value="" style="endArrow=classic;html=1;rounded=0;exitX=0.5;exitY=0.5;exitDx=0;exitDy=0;exitPerimeter=0;" parent="1" source="M3MPykR8WJl9rRJrLF5X-2" target="M3MPykR8WJl9rRJrLF5X-8" edge="1">
          <mxGeometry width="50" height="50" relative="1" as="geometry">
            <mxPoint x="350" y="540" as="sourcePoint" />
            <mxPoint x="400" y="490" as="targetPoint" />
          </mxGeometry>
        </mxCell>
        <mxCell id="M3MPykR8WJl9rRJrLF5X-19" value="" style="endArrow=classic;html=1;rounded=0;entryX=0;entryY=1;entryDx=0;entryDy=0;" parent="1" source="M3MPykR8WJl9rRJrLF5X-2" target="M3MPykR8WJl9rRJrLF5X-6" edge="1">
          <mxGeometry width="50" height="50" relative="1" as="geometry">
            <mxPoint x="350" y="540" as="sourcePoint" />
            <mxPoint x="400" y="490" as="targetPoint" />
          </mxGeometry>
        </mxCell>
        <mxCell id="M3MPykR8WJl9rRJrLF5X-20" value="" style="endArrow=classic;html=1;rounded=0;entryX=0;entryY=0.5;entryDx=0;entryDy=0;" parent="1" source="M3MPykR8WJl9rRJrLF5X-2" target="M3MPykR8WJl9rRJrLF5X-9" edge="1">
          <mxGeometry width="50" height="50" relative="1" as="geometry">
            <mxPoint x="350" y="540" as="sourcePoint" />
            <mxPoint x="310" y="490" as="targetPoint" />
          </mxGeometry>
        </mxCell>
        <mxCell id="M3MPykR8WJl9rRJrLF5X-21" value="" style="endArrow=classic;html=1;rounded=0;exitX=0.5;exitY=0.5;exitDx=0;exitDy=0;exitPerimeter=0;" parent="1" source="M3MPykR8WJl9rRJrLF5X-3" target="M3MPykR8WJl9rRJrLF5X-22" edge="1">
          <mxGeometry width="50" height="50" relative="1" as="geometry">
            <mxPoint x="350" y="540" as="sourcePoint" />
            <mxPoint x="400" y="490" as="targetPoint" />
          </mxGeometry>
        </mxCell>
        <mxCell id="M3MPykR8WJl9rRJrLF5X-24" value="" style="edgeStyle=orthogonalEdgeStyle;rounded=0;orthogonalLoop=1;jettySize=auto;html=1;" parent="1" source="M3MPykR8WJl9rRJrLF5X-22" target="M3MPykR8WJl9rRJrLF5X-9" edge="1">
          <mxGeometry relative="1" as="geometry" />
        </mxCell>
        <mxCell id="M3MPykR8WJl9rRJrLF5X-22" value="Resource Add" style="ellipse;whiteSpace=wrap;html=1;" parent="1" vertex="1">
          <mxGeometry x="460" y="510" width="120" height="40" as="geometry" />
        </mxCell>
        <mxCell id="M3MPykR8WJl9rRJrLF5X-23" value="" style="endArrow=classic;html=1;rounded=0;entryX=1;entryY=1;entryDx=0;entryDy=0;" parent="1" source="M3MPykR8WJl9rRJrLF5X-4" target="M3MPykR8WJl9rRJrLF5X-22" edge="1">
          <mxGeometry width="50" height="50" relative="1" as="geometry">
            <mxPoint x="350" y="540" as="sourcePoint" />
            <mxPoint x="400" y="490" as="targetPoint" />
          </mxGeometry>
        </mxCell>
        <mxCell id="M3MPykR8WJl9rRJrLF5X-26" value="Quiz Add" style="ellipse;whiteSpace=wrap;html=1;" parent="1" vertex="1">
          <mxGeometry x="300" y="650" width="120" height="40" as="geometry" />
        </mxCell>
        <mxCell id="M3MPykR8WJl9rRJrLF5X-27" value="" style="endArrow=classic;html=1;rounded=0;exitX=0.5;exitY=0.5;exitDx=0;exitDy=0;exitPerimeter=0;entryX=1;entryY=0;entryDx=0;entryDy=0;" parent="1" source="M3MPykR8WJl9rRJrLF5X-12" target="M3MPykR8WJl9rRJrLF5X-10" edge="1">
          <mxGeometry width="50" height="50" relative="1" as="geometry">
            <mxPoint x="350" y="540" as="sourcePoint" />
            <mxPoint x="400" y="490" as="targetPoint" />
          </mxGeometry>
        </mxCell>
        <mxCell id="M3MPykR8WJl9rRJrLF5X-28" value="" style="endArrow=classic;html=1;rounded=0;entryX=0.921;entryY=0.776;entryDx=0;entryDy=0;entryPerimeter=0;" parent="1" source="M3MPykR8WJl9rRJrLF5X-4" target="M3MPykR8WJl9rRJrLF5X-10" edge="1">
          <mxGeometry width="50" height="50" relative="1" as="geometry">
            <mxPoint x="350" y="540" as="sourcePoint" />
            <mxPoint x="400" y="490" as="targetPoint" />
          </mxGeometry>
        </mxCell>
        <mxCell id="M3MPykR8WJl9rRJrLF5X-32" value="" style="endArrow=classic;html=1;rounded=0;entryX=1;entryY=0.5;entryDx=0;entryDy=0;exitX=0.5;exitY=0.5;exitDx=0;exitDy=0;exitPerimeter=0;" parent="1" source="M3MPykR8WJl9rRJrLF5X-3" target="M3MPykR8WJl9rRJrLF5X-5" edge="1">
          <mxGeometry width="50" height="50" relative="1" as="geometry">
            <mxPoint x="530" y="520" as="sourcePoint" />
            <mxPoint x="580" y="470" as="targetPoint" />
          </mxGeometry>
        </mxCell>
        <mxCell id="M3MPykR8WJl9rRJrLF5X-33" value="" style="endArrow=classic;html=1;rounded=0;entryX=1;entryY=1;entryDx=0;entryDy=0;exitX=0.5;exitY=0.5;exitDx=0;exitDy=0;exitPerimeter=0;" parent="1" source="M3MPykR8WJl9rRJrLF5X-12" target="M3MPykR8WJl9rRJrLF5X-5" edge="1">
          <mxGeometry width="50" height="50" relative="1" as="geometry">
            <mxPoint x="530" y="520" as="sourcePoint" />
            <mxPoint x="580" y="470" as="targetPoint" />
          </mxGeometry>
        </mxCell>
        <mxCell id="M3MPykR8WJl9rRJrLF5X-34" value="" style="endArrow=classic;html=1;rounded=0;exitX=0.25;exitY=0.1;exitDx=0;exitDy=0;exitPerimeter=0;" parent="1" source="M3MPykR8WJl9rRJrLF5X-4" target="M3MPykR8WJl9rRJrLF5X-5" edge="1">
          <mxGeometry width="50" height="50" relative="1" as="geometry">
            <mxPoint x="530" y="520" as="sourcePoint" />
            <mxPoint x="580" y="470" as="targetPoint" />
          </mxGeometry>
        </mxCell>
        <mxCell id="M3MPykR8WJl9rRJrLF5X-35" value="" style="endArrow=classic;html=1;rounded=0;" parent="1" source="M3MPykR8WJl9rRJrLF5X-2" target="M3MPykR8WJl9rRJrLF5X-26" edge="1">
          <mxGeometry width="50" height="50" relative="1" as="geometry">
            <mxPoint x="530" y="520" as="sourcePoint" />
            <mxPoint x="580" y="470" as="targetPoint" />
          </mxGeometry>
        </mxCell>
      </root>
    </mxGraphModel>
  </diagram>
</mxfile>
